<svg width="15" height="15" viewBox="0 0 15 15" fill="none" xmlns="http://www.w3.org/2000/svg">
<g clip-path="url(#clip0_8_96)">
<path fill-rule="evenodd" clip-rule="evenodd" d="M7.5 0.75C3.77208 0.75 0.75 3.77208 0.75 7.5C0.75 11.2279 3.77208 14.25 7.5 14.25C11.2279 14.25 14.25 11.2279 14.25 7.5C14.25 3.77208 11.2279 0.75 7.5 0.75ZM5.46025 4.66475C5.24058 4.44508 4.88442 4.44508 4.66475 4.66475C4.44508 4.88442 4.44508 5.24058 4.66475 5.46025L6.7045 7.5L4.66475 9.53975C4.44508 9.75942 4.44508 10.1156 4.66475 10.3352C4.88442 10.5549 5.24058 10.5549 5.46025 10.3352L7.5 8.2955L9.53975 10.3352C9.75942 10.5549 10.1156 10.5549 10.3352 10.3352C10.5549 10.1156 10.5549 9.75942 10.3352 9.53975L8.2955 7.5L10.3352 5.46025C10.5549 5.24058 10.5549 4.88442 10.3352 4.66475C10.1156 4.44508 9.75942 4.44508 9.53975 4.66475L7.5 6.7045L5.46025 4.66475Z" fill="#A4A4A4"/>
</g>
<defs>
<clipPath id="clip0_8_96">
<rect width="15" height="15" fill="white"/>
</clipPath>
</defs>
</svg>
